<?xml version="1.0" encoding="utf-8"?>
<!-- Generator: Adobe Illustrator 16.0.3, SVG Export Plug-In . SVG Version: 6.00 Build 0)  -->
<!DOCTYPE svg PUBLIC "-//W3C//DTD SVG 1.1//EN" "http://www.w3.org/Graphics/SVG/1.1/DTD/svg11.dtd">
<svg version="1.1" id="Capa_1" xmlns="http://www.w3.org/2000/svg" xmlns:xlink="http://www.w3.org/1999/xlink" x="0px" y="0px"
	 width="87.184px" height="15.426px" viewBox="0 0 87.184 15.426" enable-background="new 0 0 87.184 15.426" xml:space="preserve">
<g>
	<defs>
		<rect id="SVGID_1_" width="87.183" height="15.426"/>
	</defs>
	<clipPath id="SVGID_2_">
		<use xlink:href="#SVGID_1_"  overflow="visible"/>
	</clipPath>
	<path clip-path="url(#SVGID_2_)" fill="#007bc1" d="M7.616,10.228c-0.087,0.525-0.246,0.995-0.474,1.409
		c-0.223,0.408-0.5,0.752-0.83,1.029c-0.326,0.272-0.703,0.479-1.13,0.62c-0.423,0.142-0.875,0.212-1.356,0.212
		c-0.369,0-0.719-0.042-1.049-0.124c-0.326-0.088-0.639-0.219-0.94-0.394c-0.302-0.176-0.569-0.38-0.802-0.614
		c-0.33-0.34-0.568-0.703-0.714-1.088c-0.146-0.384-0.236-0.8-0.27-1.248C0.017,9.577,0,8.931,0,8.088
		C0,7.44,0.008,6.927,0.021,6.547c0.02-0.38,0.058-0.728,0.117-1.044c0.063-0.316,0.162-0.611,0.299-0.884
		c0.14-0.277,0.34-0.547,0.597-0.81c0.369-0.37,0.789-0.65,1.261-0.84c0.471-0.194,0.981-0.291,1.53-0.292
		c0.996,0,1.829,0.283,2.5,0.847C7,4.089,7.431,4.897,7.616,5.948H5.969C5.843,5.389,5.595,4.946,5.226,4.619
		c-0.365-0.33-0.831-0.496-1.4-0.496c-0.311,0-0.605,0.056-0.881,0.168c-0.273,0.112-0.503,0.27-0.693,0.474
		C2.111,4.921,2.001,5.079,1.924,5.24C1.846,5.396,1.783,5.605,1.734,5.868c-0.049,0.258-0.083,0.55-0.102,0.876
		C1.618,7.071,1.611,7.518,1.611,8.088c0,0.564,0.007,1.01,0.022,1.335c0.019,0.321,0.053,0.613,0.102,0.876
		c0.048,0.264,0.111,0.473,0.189,0.629c0.078,0.15,0.187,0.312,0.328,0.481c0.19,0.199,0.42,0.358,0.693,0.475
		c0.276,0.111,0.57,0.168,0.881,0.168c0.384,0,0.722-0.075,1.013-0.227c0.292-0.151,0.535-0.365,0.729-0.643
		c0.194-0.277,0.333-0.597,0.415-0.956H7.616z"/>
</g>
<rect x="9.758" y="2.766" fill="#007bc1" width="1.618" height="10.646"/>
<polygon fill="#007bc1" points="20.668,4.211 17.746,4.211 17.746,13.411 16.135,13.411 16.135,4.211 13.205,4.211 13.205,2.765 
	20.668,2.765 "/>
<g>
	<defs>
		<rect id="SVGID_3_" width="87.183" height="15.426"/>
	</defs>
	<clipPath id="SVGID_4_">
		<use xlink:href="#SVGID_3_"  overflow="visible"/>
	</clipPath>
	<path clip-path="url(#SVGID_4_)" fill="#007bc1" d="M29.734,10.228c-0.087,0.525-0.246,0.995-0.474,1.409
		c-0.223,0.408-0.5,0.752-0.83,1.029c-0.326,0.272-0.703,0.479-1.13,0.62c-0.423,0.142-0.875,0.212-1.356,0.212
		c-0.369,0-0.719-0.042-1.049-0.124c-0.326-0.088-0.639-0.219-0.94-0.394c-0.302-0.176-0.569-0.38-0.802-0.614
		c-0.33-0.34-0.568-0.703-0.714-1.088c-0.146-0.384-0.236-0.8-0.27-1.248c-0.034-0.453-0.051-1.1-0.051-1.942
		c0-0.648,0.008-1.161,0.022-1.541c0.02-0.38,0.058-0.728,0.117-1.044c0.063-0.316,0.162-0.611,0.299-0.884
		c0.14-0.277,0.34-0.547,0.597-0.81c0.369-0.37,0.789-0.65,1.261-0.84c0.471-0.194,0.981-0.291,1.53-0.292
		c0.996,0,1.829,0.283,2.5,0.847c0.675,0.565,1.105,1.373,1.29,2.424h-1.647c-0.126-0.559-0.374-1.002-0.743-1.329
		c-0.365-0.33-0.831-0.496-1.4-0.496c-0.311,0-0.605,0.056-0.881,0.168c-0.273,0.112-0.503,0.27-0.693,0.474
		c-0.141,0.156-0.25,0.314-0.328,0.475c-0.078,0.156-0.141,0.365-0.189,0.628c-0.049,0.258-0.083,0.55-0.102,0.876
		c-0.015,0.327-0.022,0.774-0.022,1.344c0,0.564,0.007,1.01,0.022,1.335c0.019,0.321,0.053,0.613,0.102,0.876
		c0.048,0.264,0.111,0.473,0.189,0.629c0.078,0.15,0.187,0.312,0.328,0.481c0.19,0.199,0.42,0.358,0.693,0.475
		c0.276,0.111,0.57,0.168,0.881,0.168c0.384,0,0.722-0.075,1.013-0.227c0.292-0.151,0.535-0.365,0.729-0.643
		c0.194-0.277,0.333-0.597,0.415-0.956H29.734z"/>
</g>
<polygon fill="#007bc1" points="38.668,13.41 31.876,13.41 31.876,2.766 38.668,2.766 38.668,4.21 33.495,4.21 33.495,7.322 
	37.911,7.322 37.911,8.76 33.495,8.76 33.495,11.958 38.668,11.958 "/>
<path fill="#007bc1" d="M45.804,9.898l-1.61-4.724l-1.654,4.724H45.804z M48.704,13.41h-1.72l-0.729-2.139h-4.197l-0.729,2.139
	h-1.72l3.899-10.645h1.297L48.704,13.41z"/>
<g>
	<defs>
		<rect id="SVGID_5_" width="87.183" height="15.426"/>
	</defs>
	<clipPath id="SVGID_6_">
		<use xlink:href="#SVGID_5_"  overflow="visible"/>
	</clipPath>
	<path clip-path="url(#SVGID_6_)" fill="#007bc1" d="M52.557,7.344c0.191-4.087,3.561-7.341,7.688-7.341s7.496,3.254,7.688,7.341
		h-3.719l-6.61-3.822v3.822H52.557z M67.933,8.084c-0.192,4.087-3.562,7.342-7.688,7.342s-7.496-3.255-7.688-7.342h5.047v3.823
		l6.611-3.823H67.933z M58.341,10.626V4.803l5.036,2.911L58.341,10.626z"/>
	<path clip-path="url(#SVGID_6_)" fill="#007bc1" d="M79.36,11.144v0.603h0.175c0.211,0.004,0.367,0.01,0.367-0.276
		C79.902,11.146,79.731,11.144,79.36,11.144"/>
	<path clip-path="url(#SVGID_6_)" fill="#007bc1" d="M82.128,4.382c-0.606,0-1.1-0.494-1.1-1.103s0.493-1.103,1.1-1.103
		c0.608,0,1.103,0.494,1.103,1.103S82.736,4.382,82.128,4.382 M82.128,6.996c-0.606,0-1.1-0.494-1.1-1.102
		c0-0.609,0.493-1.103,1.1-1.103c0.608,0,1.103,0.494,1.103,1.103C83.23,6.502,82.736,6.996,82.128,6.996 M82.128,9.669
		c-0.606,0-1.1-0.494-1.1-1.103c0-0.609,0.493-1.103,1.1-1.103c0.608,0,1.103,0.494,1.103,1.103
		C83.23,9.175,82.736,9.669,82.128,9.669 M82.948,11.479c-0.135-0.186-0.357-0.284-0.585-0.284c-0.409,0-0.683,0.313-0.683,0.713
		c0,0.406,0.278,0.699,0.692,0.699c0.218,0,0.437-0.105,0.575-0.273v0.802c-0.22,0.069-0.381,0.119-0.589,0.119
		c-0.357,0-0.698-0.136-0.962-0.378c-0.284-0.255-0.413-0.59-0.413-0.972c0-0.353,0.133-0.689,0.378-0.942
		c0.252-0.259,0.617-0.415,0.977-0.415c0.215,0,0.413,0.047,0.609,0.129V11.479z M79.526,4.382c-0.608,0-1.101-0.494-1.101-1.103
		s0.492-1.103,1.101-1.103s1.102,0.494,1.102,1.103S80.135,4.382,79.526,4.382 M79.526,6.996c-0.608,0-1.101-0.494-1.101-1.102
		c0-0.609,0.492-1.103,1.101-1.103s1.102,0.494,1.102,1.103C80.628,6.502,80.135,6.996,79.526,6.996 M79.526,9.669
		c-0.608,0-1.101-0.494-1.101-1.103c0-0.609,0.492-1.103,1.101-1.103s1.102,0.494,1.102,1.103
		C80.628,9.175,80.135,9.669,79.526,9.669 M79.753,12.323H79.34v0.81h-0.632v-2.528h1.022c0.551,0,0.862,0.255,0.862,0.845
		C80.593,12.057,80.336,12.323,79.753,12.323 M78.132,12.043c0,0.33-0.012,0.601-0.265,0.849c-0.213,0.21-0.547,0.284-0.844,0.284
		c-0.298,0-0.631-0.074-0.845-0.284c-0.253-0.248-0.266-0.519-0.266-0.849v-1.438h0.738v1.348c0,0.332-0.053,0.617,0.372,0.617
		s0.377-0.285,0.377-0.617v-1.348h0.731V12.043z M76.852,7.463c0.608,0,1.101,0.494,1.101,1.103c0,0.608-0.492,1.103-1.101,1.103
		s-1.101-0.494-1.101-1.103C75.751,7.957,76.243,7.463,76.852,7.463 M76.852,4.791c0.608,0,1.101,0.494,1.101,1.103
		c0,0.608-0.492,1.102-1.101,1.102s-1.101-0.494-1.101-1.102C75.751,5.285,76.243,4.791,76.852,4.791 M76.852,2.176
		c0.608,0,1.101,0.494,1.101,1.103s-0.492,1.103-1.101,1.103s-1.101-0.494-1.101-1.103S76.243,2.176,76.852,2.176 M79.485,0
		c-4.25,0-7.696,3.453-7.696,7.712c0,4.258,3.446,7.71,7.696,7.71c4.252,0,7.698-3.452,7.698-7.71C87.184,3.453,83.737,0,79.485,0"
		/>
</g>
</svg>
